<svg width="100" height="109" viewBox="0 0 100 109" fill="none" xmlns="http://www.w3.org/2000/svg">
<path d="M0 108.084V46.6381H11.8887L12.8899 55.0228H13.3904C15.9767 52.2696 18.7716 49.9336 21.7751 48.0147C24.862 46.0958 28.3243 45.1364 32.1621 45.1364C36.7507 45.1364 40.3799 46.0958 43.0496 48.0147C45.7193 49.9336 47.7634 52.6451 49.1817 56.1491C52.1017 52.9788 55.1469 50.3507 58.3172 48.265C61.4875 46.1793 65.0333 45.1364 68.9544 45.1364C75.4619 45.1364 80.2591 47.2639 83.346 51.5188C86.4329 55.7737 87.9764 61.7806 87.9764 69.5395V108.084H73.4596V71.4167C73.4596 66.3275 72.7088 62.74 71.207 60.6543C69.7053 58.5685 67.3276 57.5257 64.0738 57.5257C62.0715 57.5257 60.0275 58.1514 57.9417 59.4028C55.856 60.6543 53.6034 62.5732 51.184 65.1595V108.084H36.7924V71.4167C36.7924 66.3275 35.9998 62.74 34.4146 60.6543C32.9129 58.5685 30.5352 57.5257 27.2814 57.5257C23.4437 57.5257 19.1471 60.0703 14.3916 65.1595V108.084H0Z" fill="#336386"/>
<path d="M0 108.084V46.6381H11.8887L12.8899 55.0228H13.3904C15.9767 52.2696 18.7716 49.9336 21.7751 48.0147C24.862 46.0958 28.3243 45.1364 32.1621 45.1364C36.7507 45.1364 40.3799 46.0958 43.0496 48.0147C44.2957 48.9103 45.4054 49.9786 46.3789 51.2195C47.4911 52.6373 48.4253 54.2805 49.1817 56.1491C52.1017 52.9788 55.1469 50.3507 58.3172 48.265C61.4875 46.1793 65.0333 45.1364 68.9544 45.1364C75.4619 45.1364 80.2591 47.2639 83.346 51.5188C86.4329 55.7737 87.9764 61.7806 87.9764 69.5395V108.084H73.4596V71.4167C73.4596 66.3275 72.7088 62.74 71.207 60.6543C69.7053 58.5685 67.3276 57.5257 64.0738 57.5257C62.0715 57.5257 60.0275 58.1514 57.9417 59.4028C57.7037 59.5457 57.4634 59.6972 57.2209 59.8575C55.8751 60.7471 54.4622 61.9047 52.9824 63.3303C52.3935 63.8976 51.794 64.5073 51.184 65.1595V108.084H36.7924V71.4167C36.7924 66.3275 35.9998 62.74 34.4146 60.6543C32.9129 58.5685 30.5352 57.5257 27.2814 57.5257C23.4437 57.5257 19.1471 60.0703 14.3916 65.1595V108.084H0Z" fill="black"/>
<path d="M76.7425 76.8734C72.262 76.8412 68.2374 75.9607 64.6686 74.2318C61.1753 72.426 58.4347 69.9675 56.447 66.8564C54.4592 63.7452 53.4832 60.2542 53.5188 56.3834C53.5487 53.1319 54.2098 50.272 55.5021 47.8038C56.8697 45.2587 58.5702 43.0643 60.6036 41.2208C62.7123 39.3004 64.8925 37.7289 67.1441 36.5063L67.1484 36.0418C64.5526 34.0876 62.2593 31.7098 60.2688 28.9083C58.2782 26.1068 57.3007 22.7706 57.3363 18.8998C57.3712 15.1064 58.2979 11.7839 60.1165 8.93229C61.9351 6.08072 64.345 3.89149 67.3462 2.36459C70.4229 0.760804 73.9027 -0.0271543 77.7859 0.000713976C83.9839 0.045196 88.858 1.93831 92.4082 5.68004C96.0339 9.3449 97.82 14.0805 97.7665 19.8867C97.743 22.4415 97.1979 24.8764 96.131 27.1914C95.0649 29.429 93.7766 31.4714 92.266 33.3187C90.7561 35.0886 89.2491 36.5488 87.7449 37.6993L87.7406 38.1638C89.8201 39.4175 91.7855 40.9026 93.6367 42.6192C95.5626 44.3363 97.1119 46.3991 98.2846 48.8076C99.458 51.1387 100.029 53.9687 99.9988 57.2976C99.9653 60.9362 98.9639 64.2582 96.9946 67.2635C95.1006 70.192 92.3906 72.5339 88.8645 74.2893C85.413 76.0452 81.3724 76.9066 76.7425 76.8734ZM82.1677 35.1044C84.6527 32.877 86.5413 30.5291 87.8335 28.0609C89.1258 25.5927 89.7844 23.0038 89.8093 20.2942C89.8314 17.8942 89.366 15.7231 88.413 13.7807C87.4608 11.7609 86.0565 10.1637 84.2003 8.989C82.3448 7.73693 80.1103 7.10151 77.4967 7.08276C74.2109 7.05918 71.4376 8.16189 69.1767 10.3909C66.9912 12.543 65.882 15.3997 65.8493 18.9609C65.8222 21.9027 66.5465 24.3467 68.0222 26.2929C69.5726 28.2395 71.5735 29.9185 74.025 31.3297C76.5518 32.664 79.2661 33.9222 82.1677 35.1044ZM77.0317 69.7913C79.7947 69.8111 82.2266 69.2866 84.3275 68.2178C86.4284 67.149 88.0851 65.6511 89.2977 63.7243C90.5111 61.72 91.1295 59.4405 91.153 56.8857C91.1822 53.7117 90.31 51.1117 88.5363 49.086C86.7626 47.0603 84.426 45.3403 81.5265 43.9259C78.6277 42.4341 75.4302 40.9401 71.934 39.444C69.0785 41.359 66.6675 43.6644 64.701 46.3601C62.8092 49.0563 61.8476 52.1075 61.8163 55.5139C61.7914 58.2235 62.441 60.6669 63.7652 62.8442C65.0901 64.9441 66.9044 66.6217 69.2079 67.877C71.5114 69.1323 74.1194 69.7704 77.0317 69.7913Z" fill="#336386"/>
<path d="M78.9437 60.9297C81.7694 57.221 85.0896 49.0617 75.7647 46.0947C70.595 44.4498 61.4595 44.5052 55.6314 50.3333C54.5718 51.393 52.9823 52.4526 49.2736 56.1614L50.8238 65.4629L54.5326 61.754C57.4762 58.8104 57.0349 59.2895 58.2806 58.8104C65.1683 56.1613 69.0536 58.104 70.9963 60.3999L78.9437 60.9297Z" fill="black"/>
</svg>
