<svg width="188" height="69" viewBox="0 0 188 69" fill="none" xmlns="http://www.w3.org/2000/svg">
    <path d="M0.522461 67.9454V32.5934H7.36246L7.93846 38.8574H8.22646C9.47446 36.5534 10.9625 34.8014 12.6905 33.6014C14.4665 32.3534 16.3145 31.7294 18.2345 31.7294C19.1465 31.7294 19.9145 31.7774 20.5385 31.8734C21.1625 31.9694 21.7385 32.1614 22.2665 32.4494L20.6105 39.5054C20.0345 39.3614 19.5065 39.2654 19.0265 39.2174C18.5465 39.1214 17.9225 39.0734 17.1545 39.0734C15.7625 39.0734 14.2985 39.6254 12.7625 40.7294C11.2265 41.7854 9.90646 43.6574 8.80246 46.3454V67.9454H0.522461Z" fill="black"/>
    <path d="M48.3507 68.8094C45.4227 68.8094 42.6867 68.0894 40.1427 66.6494C37.5987 65.1614 35.5347 63.0494 33.9507 60.3134C32.3667 57.5294 31.5747 54.1934 31.5747 50.3054C31.5747 46.3694 32.3667 43.0334 33.9507 40.2974C35.5347 37.5134 37.5987 35.4014 40.1427 33.9614C42.6867 32.4734 45.4227 31.7294 48.3507 31.7294C51.3267 31.7294 54.0867 32.4734 56.6307 33.9614C59.1747 35.4014 61.2387 37.5134 62.8227 40.2974C64.4067 43.0334 65.1987 46.3694 65.1987 50.3054C65.1987 54.1934 64.4067 57.5294 62.8227 60.3134C61.2387 63.0494 59.1747 65.1614 56.6307 66.6494C54.0867 68.0894 51.3267 68.8094 48.3507 68.8094ZM48.3507 62.0414C50.0787 62.0414 51.5667 61.5614 52.8147 60.6014C54.0627 59.6414 55.0227 58.2734 55.6947 56.4974C56.3667 54.7214 56.7027 52.6574 56.7027 50.3054C56.7027 47.9534 56.3667 45.8894 55.6947 44.1134C55.0227 42.3374 54.0627 40.9694 52.8147 40.0094C51.5667 39.0014 50.0787 38.4974 48.3507 38.4974C46.6227 38.4974 45.1347 39.0014 43.8867 40.0094C42.6867 40.9694 41.7507 42.3374 41.0787 44.1134C40.4067 45.8894 40.0707 47.9534 40.0707 50.3054C40.0707 52.6574 40.4067 54.7214 41.0787 56.4974C41.7507 58.2734 42.6867 59.6414 43.8867 60.6014C45.1347 61.5614 46.6227 62.0414 48.3507 62.0414Z" fill="black"/>
    <path d="M95.0663 68.8094C92.1383 68.8094 89.4023 68.0894 86.8583 66.6494C84.3143 65.1614 82.2503 63.0494 80.6663 60.3134C79.0823 57.5294 78.2903 54.1934 78.2903 50.3054C78.2903 46.3694 79.0823 43.0334 80.6663 40.2974C82.2503 37.5134 84.3143 35.4014 86.8583 33.9614C89.4023 32.4734 92.1383 31.7294 95.0663 31.7294C98.0423 31.7294 100.802 32.4734 103.346 33.9614C105.89 35.4014 107.954 37.5134 109.538 40.2974C111.122 43.0334 111.914 46.3694 111.914 50.3054C111.914 54.1934 111.122 57.5294 109.538 60.3134C107.954 63.0494 105.89 65.1614 103.346 66.6494C100.802 68.0894 98.0423 68.8094 95.0663 68.8094ZM95.0663 62.0414C96.7943 62.0414 98.2823 61.5614 99.5303 60.6014C100.778 59.6414 101.738 58.2734 102.41 56.4974C103.082 54.7214 103.418 52.6574 103.418 50.3054C103.418 47.9534 103.082 45.8894 102.41 44.1134C101.738 42.3374 100.778 40.9694 99.5303 40.0094C98.2823 39.0014 96.7943 38.4974 95.0663 38.4974C93.3383 38.4974 91.8503 39.0014 90.6023 40.0094C89.4023 40.9694 88.4663 42.3374 87.7943 44.1134C87.1223 45.8894 86.7863 47.9534 86.7863 50.3054C86.7863 52.6574 87.1223 54.7214 87.7943 56.4974C88.4663 58.2734 89.4023 59.6414 90.6023 60.6014C91.8503 61.5614 93.3383 62.0414 95.0663 62.0414Z" fill="black"/>
    <path d="M127.31 67.9454V32.5934H134.15L134.726 37.4174H135.014C136.502 35.8334 138.11 34.4894 139.838 33.3854C141.614 32.2814 143.606 31.7294 145.814 31.7294C148.454 31.7294 150.542 32.2814 152.078 33.3854C153.614 34.4894 154.79 36.0494 155.606 38.0654C157.286 36.2414 159.038 34.7294 160.862 33.5294C162.686 32.3294 164.726 31.7294 166.982 31.7294C170.726 31.7294 173.486 32.9534 175.262 35.4014C177.038 37.8494 177.926 41.3054 177.926 45.7694V67.9454H169.574V46.8494C169.574 43.9214 169.142 41.8574 168.278 40.6574C167.414 39.4574 166.046 38.8574 164.174 38.8574C163.022 38.8574 161.846 39.2174 160.646 39.9374C159.446 40.6574 158.15 41.7614 156.758 43.2494V67.9454H148.478V46.8494C148.478 43.9214 148.022 41.8574 147.11 40.6574C146.246 39.4574 144.878 38.8574 143.006 38.8574C140.798 38.8574 138.326 40.3214 135.59 43.2494V67.9454H127.31Z" fill="black"/>
    <path d="M173.49 47.9994C170.694 47.9793 168.184 47.4295 165.957 46.35C163.777 45.2225 162.068 43.6875 160.828 41.7449C159.587 39.8023 158.978 37.6225 159.001 35.2056C159.019 33.1753 159.432 31.3896 160.238 29.8485C161.091 28.2593 162.152 26.8892 163.421 25.7381C164.736 24.539 166.097 23.5578 167.501 22.7944L167.504 22.5043C165.885 21.2842 164.454 19.7994 163.212 18.0502C161.97 16.301 161.36 14.2179 161.382 11.801C161.404 9.43235 161.982 7.35779 163.117 5.57729C164.252 3.79678 165.755 2.42983 167.628 1.47644C169.547 0.475043 171.718 -0.016955 174.141 0.000445804C178.008 0.0282202 181.049 1.21027 183.264 3.5466C185.526 5.83492 186.64 8.79179 186.607 12.4172C186.592 14.0124 186.252 15.5327 185.586 16.9782C184.921 18.3753 184.117 19.6506 183.175 20.8041C182.233 21.9092 181.293 22.8209 180.354 23.5393L180.351 23.8293C181.649 24.6121 182.875 25.5394 184.03 26.6113C185.232 27.6834 186.198 28.9714 186.93 30.4753C187.662 31.9308 188.018 33.6978 187.999 35.7764C187.978 38.0483 187.354 40.1226 186.125 41.9991C184.943 43.8276 183.253 45.2899 181.053 46.3859C178.899 47.4823 176.378 48.0202 173.49 47.9994ZM176.875 21.919C178.425 20.5282 179.603 19.0623 180.409 17.5211C181.216 15.98 181.627 14.3635 181.642 12.6716C181.656 11.1731 181.366 9.81743 180.771 8.60461C180.177 7.34345 179.301 6.34615 178.143 5.6127C176.985 4.83091 175.591 4.43416 173.96 4.42245C171.91 4.40772 170.18 5.09625 168.77 6.48804C167.406 7.83183 166.714 9.61551 166.694 11.8391C166.677 13.676 167.129 15.202 168.049 16.4172C169.017 17.6327 170.265 18.681 171.794 19.5621C173.371 20.3953 175.064 21.1809 176.875 21.919ZM173.67 43.5774C175.394 43.5898 176.911 43.2623 178.222 42.5949C179.533 41.9276 180.566 40.9923 181.323 39.7892C182.08 38.5377 182.466 37.1144 182.48 35.5192C182.499 33.5373 181.954 31.914 180.848 30.6491C179.741 29.3843 178.284 28.3103 176.475 27.4271C174.666 26.4957 172.671 25.5628 170.49 24.6287C168.708 25.8244 167.204 27.2639 165.977 28.947C164.797 30.6305 164.197 32.5357 164.177 34.6626C164.162 36.3545 164.567 37.8802 165.393 39.2397C166.22 40.5509 167.352 41.5984 168.789 42.3822C170.226 43.1659 171.853 43.5644 173.67 43.5774Z" fill="#336386"/>
    <path d="M174 42.0965C175.905 39.721 178.143 34.4949 171.857 32.5945C168.372 31.5409 162.214 31.5764 158.286 35.3094C157.571 35.9881 156.5 36.6668 154 39.0423L155.045 45L157.545 42.6245C159.529 40.739 159.232 41.0459 160.071 40.739C164.714 39.0422 167.333 40.2865 168.643 41.7571L174 42.0965Z" fill="black"/>
</svg>